 <svg  version="1.0" xmlns="http://www.w3.org/2000/svg"  width="300.000000pt" height="226.000000pt" viewBox="0 0 300.000000 226.000000"  preserveAspectRatio="xMidYMid meet">  <g transform="translate(0.000000,226.000000) scale(0.100000,-0.100000)" fill="#ffffff" stroke="none"> <path d="M1416 1413 c-85 -133 -336 -600 -336 -626 0 -18 32 -47 51 -47 8 0 118 38 245 85 126 47 233 85 238 85 5 0 26 -18 47 -40 32 -33 45 -40 77 -40 53 0 86 31 78 74 -5 24 -43 109 -84 188 -2 3 24 18 57 33 51 23 108 65 88 65 -16 0 -427 -154 -524 -196 -6 -3 17 60 52 140 36 80 71 161 78 179 14 32 16 33 61 28 l47 -6 40 -90 c22 -49 41 -91 43 -93 7 -6 180 48 190 59 8 9 -5 10 -49 4 -122 -16 -116 -19 -155 62 -19 40 -41 78 -48 85 -7 7 -36 15 -65 18 -28 3 -51 10 -51 15 1 6 4 25 8 44 13 69 -21 11 -94 -162 -41 -94 -95 -220 -121 -279 -26 -60 -45 -108 -42 -108 7 0 425 161 444 171 13 7 23 -8 53 -78 21 -47 40 -92 43 -99 4 -11 -7 -14 -44 -14 l-49 0 -19 50 c-11 28 -21 50 -24 50 -9 0 -498 -183 -523 -197 -34 -17 -34 -13 -4 35 13 20 73 129 133 242 243 453 232 430 213 430 -6 0 -30 -30 -54 -67z"/> <path d="M1530 1228 c0 -7 -11 -37 -25 -67 -14 -30 -24 -56 -21 -58 3 -3 96 16 104 22 6 5 -41 115 -49 115 -5 0 -9 -6 -9 -12z"/> </g> </svg> 